<svg xmlns="http://www.w3.org/2000/svg" viewBox="0 0 503.31 492.16"><defs><style>.a,.c{fill:#28211f;}.a{opacity:0.8;}.b{fill:#1d1714;}.d{fill:#494949;}</style></defs><title>appstorex_logo</title><polygon class="a" points="110.66 474.36 250.64 392.83 207.01 392.83 106.79 440.16 110.66 474.36"/><polygon class="b" points="343.17 410.9 436.31 410.9 366.97 290.81 366.97 290.81 250.88 89.74 250.88 89.45 250.8 89.59 250.72 89.45 17.75 492.16 110.66 492.16 110.66 492.16 250.64 410.64 250.64 392.83 128.73 460.67 250.03 249.19 343.17 410.9"/><polygon class="c" points="250.03 314.86 223.49 360.83 250.03 360.83 276.57 360.83 250.03 314.86"/><path class="d" d="M403.07,166.53l-3.64,11h-4.68l11.91-35.05h5.46l12,35.05h-4.84l-3.74-11ZM414.56,163l-3.43-10.09c-.78-2.29-1.3-4.37-1.82-6.4h-.11c-.52,2.08-1.09,4.22-1.76,6.35L404,163Z" transform="translate(-394.75 -141.94)"/><path class="d" d="M460.42,142.93a51.86,51.86,0,0,1,8.69-.68c4.47,0,7.75,1,9.83,2.91a9.44,9.44,0,0,1,3.06,7.33,10.3,10.3,0,0,1-2.7,7.49c-2.39,2.55-6.29,3.85-10.71,3.85a15.59,15.59,0,0,1-3.64-.31v14h-4.53Zm4.53,16.9a15.16,15.16,0,0,0,3.74.36c5.46,0,8.79-2.65,8.79-7.49,0-4.63-3.28-6.86-8.27-6.86a18.92,18.92,0,0,0-4.26.36Z" transform="translate(-394.75 -141.94)"/><path class="d" d="M519.29,142.93a51.63,51.63,0,0,1,8.68-.68c4.47,0,7.75,1,9.83,2.91a9.44,9.44,0,0,1,3.07,7.33,10.3,10.3,0,0,1-2.71,7.49c-2.39,2.55-6.29,3.85-10.71,3.85a15.59,15.59,0,0,1-3.64-.31v14h-4.52Zm4.52,16.9a15.25,15.25,0,0,0,3.75.36c5.46,0,8.78-2.65,8.78-7.49,0-4.63-3.27-6.86-8.26-6.86a19,19,0,0,0-4.27.36Z" transform="translate(-394.75 -141.94)"/><path class="d" d="M577.53,172.05a16.11,16.11,0,0,0,8.11,2.28c4.63,0,7.33-2.44,7.33-6,0-3.27-1.87-5.14-6.6-7-5.72-2-9.26-5-9.26-9.94,0-5.46,4.53-9.51,11.34-9.51a16,16,0,0,1,7.75,1.71l-1.25,3.7a13.92,13.92,0,0,0-6.66-1.67c-4.78,0-6.6,2.86-6.6,5.25,0,3.28,2.13,4.89,7,6.76,5.92,2.29,8.94,5.15,8.94,10.3,0,5.41-4,10.09-12.27,10.09a18.11,18.11,0,0,1-9-2.24Z" transform="translate(-394.75 -141.94)"/><path class="d" d="M641.64,146.36H631v-3.85h25.95v3.85H646.22v31.2h-4.58Z" transform="translate(-394.75 -141.94)"/><path class="d" d="M720.58,159.67c0,12.06-7.33,18.46-16.28,18.46-9.25,0-15.75-7.18-15.75-17.78,0-11.13,6.91-18.41,16.27-18.41C714.39,141.94,720.58,149.27,720.58,159.67Zm-27.2.57c0,7.49,4.06,14.2,11.18,14.2s11.24-6.61,11.24-14.56c0-7-3.64-14.25-11.18-14.25S693.38,152.55,693.38,160.24Z" transform="translate(-394.75 -141.94)"/><path class="d" d="M757.66,143a46.83,46.83,0,0,1,8.68-.73c4.84,0,8,.88,10.14,2.86a8.72,8.72,0,0,1,2.76,6.66,9.21,9.21,0,0,1-6.61,8.94v.16c2.71.93,4.32,3.43,5.15,7.07,1.14,4.89,2,8.27,2.7,9.62H775.8c-.57-1-1.35-4-2.34-8.37-1-4.84-2.91-6.66-7-6.82h-4.26v15.19h-4.52Zm4.52,16h4.63c4.83,0,7.9-2.65,7.9-6.65,0-4.53-3.27-6.5-8.06-6.56a18.46,18.46,0,0,0-4.47.42Z" transform="translate(-394.75 -141.94)"/><path class="d" d="M835,161.13H821.35v12.63h15.19v3.8H816.83V142.51h18.93v3.8H821.35v11.07H835Z" transform="translate(-394.75 -141.94)"/><path class="d" d="M892.8,177.56l-4.47-7.75c-1.82-3-3-4.89-4.06-6.92h-.1c-1,2-2,3.9-3.79,7l-4.22,7.7H871l10.71-17.73-10.29-17.32h5.25l4.63,8.22c1.3,2.28,2.29,4.05,3.22,5.92h.16c1-2.08,1.87-3.69,3.17-5.92l4.78-8.22h5.2l-10.66,17.06,10.92,18Z" transform="translate(-394.75 -141.94)"/></svg>