<?xml version="1.0" encoding="UTF-8"?>
<svg width="32px" height="32px" viewBox="0 0 32 32" version="1.1" xmlns="http://www.w3.org/2000/svg" xmlns:xlink="http://www.w3.org/1999/xlink">
    <!-- Generator: Sketch 52.6 (67491) - http://www.bohemiancoding.com/sketch -->
    <title>ICON-GOVA</title>
    <desc>Created with Sketch.</desc>
    <g id="Page-1" stroke="none" stroke-width="1" fill="none" fill-rule="evenodd">
        <g id="04-钱包" transform="translate(-40.000000, -140.000000)">
            <g id="GOVA" transform="translate(20.000000, 120.000000)">
                <g id="Group-3" transform="translate(20.000000, 20.000000)">
                    <g id="ICON-GOVA">
                        <circle id="Oval" fill="#11458F" cx="16" cy="16" r="16"></circle>
                        <g id="logo" transform="translate(4.666667, 4.666667)" fill="#FFFFFF" fill-rule="nonzero">
                            <path d="M14.0362238,8.26006122 C13.7010744,8.17263277 13.3658285,8.08597973 13.0304858,8.00010211 C12.2395798,7.79655471 11.421711,7.58573776 10.6215275,7.36590657 C10.3434927,7.28943091 10.1448964,7.34526105 9.93557305,7.55840426 C9.23976127,8.26878468 8.46277145,9.04371871 7.49530316,9.9969021 C7.29583712,10.1934707 7.31671147,10.3923656 7.36889736,10.5784661 C7.64345309,11.5537489 7.96091721,12.6886711 8.25054886,13.813125 C8.33984471,14.1597372 8.51698679,14.3420575 8.84314856,14.4237672 C9.60013379,14.6119032 10.3675562,14.814869 11.1097554,15.0117284 L11.5321712,15.1233887 C11.6849598,15.1638074 11.8400679,15.2106233 11.9902472,15.2568577 C12.0609881,15.2783755 12.131729,15.2998934 12.2027597,15.3208297 L12.216676,15.3243191 C12.2458797,15.3302475 12.2755961,15.3332669 12.305392,15.3333333 C12.4909418,15.3333333 12.5987926,15.2062616 12.6666343,15.1262966 C12.6843195,15.105651 12.700845,15.0861686 12.7165008,15.0704664 L13.1363072,14.6491233 C13.7900804,13.9968993 14.4664674,13.322285 15.1353165,12.663373 C15.2646215,12.5360105 15.3863885,12.3688109 15.3092694,12.0940219 C14.9578845,10.8267939 14.6482482,9.68053128 14.3629654,8.58573706 C14.3038214,8.35718241 14.1571211,8.29146568 14.0362238,8.26006122 Z M14.0237572,12.26064 L13.9970844,12.2868103 C13.7515208,12.5336843 13.4995789,12.7828844 13.2557549,13.0236519 C12.9168366,13.3586328 12.5663214,13.7052449 12.2268232,14.0518571 C12.1343383,14.1463612 12.0624377,14.1629358 11.9200862,14.123971 C11.0943896,13.8965795 10.253617,13.6706419 9.42067233,13.4528461 C9.29281692,13.4191154 9.25019845,13.3871294 9.21453809,13.2391214 C9.01797127,12.4182438 8.79067275,11.5732313 8.53844098,10.7276373 C8.490314,10.566544 8.50944883,10.5115862 8.59352608,10.4284226 C9.28759833,9.73607064 9.90716073,9.11147091 10.4875837,8.51972954 C10.5184767,8.48242469 10.5644816,8.4610629 10.6128298,8.46157314 C10.6486203,8.46269448 10.6841055,8.46856104 10.7183613,8.47902006 L11.199921,8.61277978 C11.8597825,8.79597244 12.5416781,8.98556231 13.2160356,9.16235776 C13.3937576,9.20888288 13.4479729,9.27140101 13.4943604,9.48047327 C13.6152577,10.0306328 13.769206,10.5807923 13.9182257,11.1129234 C13.9779495,11.326939 14.0399928,11.5490964 14.0988468,11.765729 C14.1159522,11.829701 14.1313181,11.8954178 14.1423351,11.9433968 C14.1461041,11.9596806 14.1492932,11.972475 14.1521924,11.9855602 C14.1719071,12.1076886 14.12407,12.1614833 14.0234672,12.26064 L14.0237572,12.26064 Z" id="Shape"></path>
                            <path d="M7.75250774,14.8051721 C7.98165083,14.5854123 8.04760232,14.3573422 7.96723352,14.0664836 C7.91058682,13.8637547 7.85383786,13.6610257 7.79698666,13.4582968 C7.56109505,12.6183465 7.31753467,11.749772 7.09943462,10.8910466 C7.00250127,10.5103143 6.8040333,10.3087139 6.43501171,10.2160701 C5.49972757,9.98184425 4.39726407,9.69868034 3.31412589,9.37796644 C2.92424523,9.26223858 2.70430468,9.38381439 2.49418016,9.60172748 C2.11166153,9.9972336 1.71871335,10.3948942 1.33772847,10.7790122 C1.00429001,11.1160388 0.659195007,11.4656847 0.323302538,11.8110215 C0.298397189,11.8336433 0.271726901,11.8542282 0.243547248,11.8725789 C0.146920648,11.9375219 0.014404167,12.0286269 0.000907117997,12.1923695 C-0.00798866428,12.3093285 0.0484535405,12.4238252 0.174221497,12.5420153 C0.299989453,12.6602055 0.412567112,12.7060657 0.528519032,12.6903686 C0.693857882,12.6679002 0.782202203,12.5232403 0.840484914,12.4275186 C0.855239271,12.4012553 0.871953832,12.3761502 0.890485346,12.3524186 C1.32269766,11.9405998 1.74938846,11.5112371 2.16442272,11.0957249 C2.38896453,10.8704249 2.62117513,10.6374303 2.85093171,10.4102836 C2.87179078,10.3896618 2.89172961,10.3675012 2.91228193,10.3444172 C2.97854017,10.2702405 3.01933807,10.2243803 3.10461488,10.2213024 C3.10461488,10.2213024 3.30154909,10.2283815 3.2343706,10.230536 C3.25358239,10.2306338 3.27272192,10.2329053 3.29142631,10.2373073 C3.621286,10.3261552 3.9509412,10.4157211 4.2803919,10.5060053 C4.9009494,10.675288 5.54297948,10.8504188 6.17611377,11.0157003 C6.27488763,11.0415544 6.2926792,11.0772577 6.33899862,11.2499261 L6.33899862,11.2551585 C6.57059571,12.1169617 6.83317466,13.0963395 7.10863716,14.0501709 C7.15066206,14.1954463 7.12366796,14.2757787 6.98839072,14.4084348 C6.66936956,14.7208385 6.3478944,15.0409368 6.03746227,15.3508782 C5.66383942,15.7229925 5.27763976,16.1077261 4.89358737,16.4810715 L4.86045825,16.5118502 C4.76015064,16.6075719 4.64573247,16.7162207 4.64726623,16.8765776 C4.64726623,16.9870731 4.70401518,17.0920284 4.8187401,17.1991383 C4.9153667,17.2893198 5.00892579,17.3333333 5.10309838,17.3333333 C5.11334898,17.3332688 5.12358874,17.3326524 5.13377349,17.3314866 C5.28346804,17.3157895 5.36874484,17.1948292 5.4254938,17.1160358 C5.4402158,17.0944202 5.45640999,17.073852 5.47396048,17.0544784 C5.78500611,16.7497695 6.09789224,16.437058 6.40065559,16.1348113 C6.84329745,15.6952917 7.29759584,15.2416139 7.75250774,14.8051721 Z" id="Shape"></path>
                            <path d="M10.1332656,6.12945769 L10.2633763,6.62886534 C10.2959809,6.7553367 10.3574989,6.99131376 10.6549387,7.06812198 C11.7075125,7.33895578 12.8289865,7.63384998 14.0833394,7.96915333 C14.1522461,7.98860312 14.2233848,7.99897251 14.2949615,8 C14.461983,8 14.6025518,7.93460505 14.7372763,7.79949662 C15.1137667,7.41915713 15.501638,7.03665837 15.8753602,6.66649828 C16.2607707,6.28615879 16.6594077,5.8928637 17.0469714,5.50080247 C17.066024,5.48418999 17.0860533,5.4687389 17.1069515,5.45453246 C17.1912312,5.39438144 17.318266,5.30369222 17.3321075,5.14606572 C17.3416428,5.04057009 17.2955043,4.93507447 17.1952299,4.83204658 C17.0949555,4.72901868 16.9879141,4.67627087 16.8777967,4.67565394 L16.8756436,4.67565394 C16.7027779,4.67565394 16.5818949,4.79688137 16.4757763,4.90361086 L16.4650107,4.9144072 C15.9784029,5.40219593 15.4907698,5.88905927 15.0021115,6.37499721 L14.3672452,7.00642863 C14.3469443,7.02678743 14.3275661,7.04868857 14.3081879,7.07058971 C14.2383649,7.14986566 14.2325207,7.14801486 14.2143729,7.14277093 L14.1922264,7.13783546 L14.1473182,7.13197459 C14.1325311,7.13062232 14.1178414,7.12835592 14.1033328,7.12518832 C13.8236308,7.04889422 13.5439287,6.97218882 13.2642266,6.89507214 C12.5752245,6.70536509 11.8628455,6.50948871 11.1590791,6.32564253 C11.0323519,6.29263659 10.9914424,6.21459451 10.9471494,6.05264947 C10.8182691,5.57915302 10.6915419,5.09640257 10.5688134,4.62907546 C10.4583885,4.20832683 10.3442725,3.77338872 10.2286186,3.34616229 C10.1723296,3.13887264 10.2107784,3.01456054 10.3802606,2.8544663 C10.903164,2.36091952 11.4186852,1.84701393 11.9182118,1.34914861 C12.1093278,1.15851616 12.300854,0.968192186 12.4927903,0.778176674 L12.5201659,0.751648534 C12.5927572,0.682243517 12.6921088,0.586927295 12.6914936,0.443181794 C12.6914936,0.345706304 12.6450475,0.255325549 12.5506173,0.165561727 C12.4561871,0.0757979058 12.2098073,-0.155552149 11.9006791,0.16247706 C11.2122922,0.870099762 10.4719225,1.61720621 9.57099067,2.51391902 C9.34245113,2.74125901 9.2833938,2.97445987 9.37382533,3.29341447 C9.64019848,4.23701423 9.89088452,5.199122 10.1332656,6.12945769 Z" id="Shape"></path>
                            <path d="M22.4937226,10.0998611 C22.3713014,9.98338113 22.2559195,9.93359285 22.1399254,9.9480376 C21.975575,9.96862905 21.8892681,10.1060078 21.8265272,10.2065064 C21.8109841,10.2335183 21.7932766,10.2592144 21.7735801,10.2833402 C21.1645348,10.8672768 20.5205994,11.5080704 19.7465916,12.3003802 C19.6156009,12.4343783 19.5357211,12.4614238 19.3897338,12.4199335 C18.5327857,12.1740655 17.5589252,11.8974639 16.6046522,11.6598939 C16.4335686,11.6171743 16.372052,11.5603173 16.331347,11.4063425 C16.2395311,11.0639712 16.1477152,10.7219073 16.053757,10.3801507 C15.9050152,9.83370895 15.7510706,9.2688271 15.6081439,8.71162863 C15.5493817,8.48204934 15.5469333,8.35788597 15.6791482,8.22972725 C16.1042557,7.82158629 16.5287511,7.39992258 16.9391681,6.99085961 C17.2244094,6.70688201 17.5206686,6.41337702 17.812031,6.12724807 C17.8288639,6.11065198 17.8487574,6.09436322 17.869875,6.07684512 C17.9414914,6.01814413 18.0391223,5.93792967 18.048916,5.80300958 C18.0556491,5.70558437 18.0134138,5.60846648 17.9194556,5.50643124 C17.85243,5.43359283 17.7465357,5.33616762 17.6023848,5.3334016 C17.4386464,5.33002092 17.3186737,5.45295494 17.2381818,5.5340914 C16.5195695,6.25970949 15.7443374,7.02927649 14.8678019,7.88674132 C14.7417081,8.00967534 14.608269,8.19038836 14.6936578,8.49403541 C14.9776749,9.50301642 15.2800552,10.604198 15.6179376,11.8605837 C15.65497,11.9979625 15.7238319,12.2539726 16.0314151,12.3372604 C16.9079507,12.5736011 17.7704078,12.8096344 18.6833637,13.0598051 L19.5788746,13.3056732 C19.619855,13.3235079 19.6639795,13.3329132 19.708641,13.3333333 C19.8690127,13.3333333 19.9865371,13.2039453 20.0633563,13.1181988 C20.0814135,13.098222 20.0994706,13.0782452 20.1184459,13.0591905 L20.4551041,12.7211219 C21.073637,12.0999977 21.7132877,11.4588968 22.3367175,10.8220985 C22.3627557,10.8001019 22.3906043,10.7803618 22.4199639,10.7630902 C22.5169826,10.7016232 22.6504217,10.6155694 22.6648062,10.4557551 C22.6779665,10.3377385 22.6213467,10.2218731 22.4937226,10.0998611 Z" id="Shape"></path>
                            <path d="M13.2905612,19.4851434 C13.2737146,19.3854894 13.2623815,19.3197733 13.2436971,19.2515889 C13.159362,18.9430626 13.074006,18.6351534 12.9876289,18.3278612 C12.789758,17.6201018 12.5854548,16.8876603 12.4056558,16.1632406 C12.3235669,15.8291066 12.1495876,15.6560233 11.8049982,15.5662422 L11.539741,15.4971323 C10.5889807,15.2481515 9.60268935,14.9911491 8.64243367,14.7103902 C8.30825857,14.6122788 8.07056849,14.6764523 7.82246415,14.9316035 C7.39547965,15.3706365 6.95440527,15.810595 6.52772707,16.2366698 C6.22142541,16.5418024 5.90593471,16.8574248 5.59718265,17.1699619 C5.58278647,17.1847712 5.56134535,17.2008146 5.53867903,17.2205602 C5.45567129,17.2881275 5.34142077,17.3809939 5.33376323,17.53464 C5.3282498,17.6413901 5.37572655,17.7432038 5.47864391,17.8462516 C5.58156126,17.9492994 5.69091095,18.0032915 5.80056694,18.0005147 C5.96076271,17.9946527 6.06429267,17.8749445 6.14025548,17.7879401 C6.16016508,17.7648006 6.17915579,17.7432038 6.19661498,17.7262349 C6.61226632,17.3137352 7.03281849,16.8932138 7.43989339,16.4850335 C7.71168505,16.2129133 7.98368092,15.9408959 8.25588099,15.6689814 L8.29753801,15.6264048 C8.39616714,15.5239741 8.4261847,15.4931214 8.54748016,15.529219 C9.53162737,15.822319 10.5359905,16.0817896 11.3887343,16.297141 C11.5706775,16.3431114 11.6420457,16.4239453 11.6950359,16.643616 C11.9189424,17.5710461 12.1413174,18.4765708 12.3995297,19.3614243 C12.4583396,19.562892 12.4182141,19.6424918 12.2598562,19.7952123 C11.8310339,20.2089461 11.4000674,20.635638 10.9841098,21.0484462 C10.7133391,21.3168641 10.4327668,21.5948463 10.1570953,21.8660409 C10.0609166,21.9604499 9.97147654,22.0675086 9.97025133,22.2103563 C9.97025133,22.3171064 10.0180344,22.4192286 10.1197265,22.5225849 C10.2152927,22.6194621 10.3102462,22.6666667 10.4097942,22.6666667 C10.5418102,22.6666667 10.640133,22.5839816 10.7268164,22.4948175 C11.4527513,21.7466412 12.2185055,20.9632929 13.0727808,20.096951 C13.0929967,20.0762798 13.1135189,20.0562256 13.1340411,20.0352458 C13.2587059,19.9118352 13.3579476,19.814958 13.32793,19.685994 C13.3120024,19.6048516 13.3009755,19.539444 13.2905612,19.4851434 Z" id="Shape"></path>
                            <path d="M18.9957106,13.5574612 C18.9780325,13.5533019 18.9603545,13.5491425 18.942971,13.544389 C17.9262851,13.2643251 16.9094028,12.9846573 15.8923241,12.7053857 C15.7597385,12.6691398 15.5134239,12.6014016 15.2930372,12.8242247 C14.9055927,13.2178788 14.5090145,13.6153953 14.1251056,14.0001365 C13.728822,14.3973558 13.3186906,14.8082416 12.9171036,15.2155623 C12.9035504,15.2295259 12.8876401,15.2431923 12.8734977,15.2571559 C12.7777414,15.3462852 12.6177548,15.4948339 12.6811013,15.7381567 C12.8955953,16.561711 13.1109732,17.3849681 13.327235,18.2079281 L13.5479163,19.0496052 C13.597415,19.2382621 13.7220454,19.3333333 13.919156,19.3333333 C13.954861,19.3331572 13.9905066,19.3303771 14.0258137,19.3250146 C14.3793753,19.2730225 14.3443137,18.9506718 14.3322337,18.844608 L14.323984,18.8068766 C14.3166181,18.7810291 14.2992346,18.7177474 14.2824405,18.6565453 C14.2164423,18.4125292 14.1512299,18.1683151 14.0868031,17.9239029 C13.9271111,17.3228747 13.762705,16.7013468 13.5829779,16.0940795 C13.5075514,15.8385757 13.5493895,15.6814111 13.7426698,15.4939426 C14.3024756,14.9508484 14.8994054,14.3527912 15.6191978,13.6121272 C15.7234984,13.504875 15.7921483,13.4912085 15.9689291,13.5423093 C16.5075212,13.6976913 17.057604,13.8450516 17.5894195,13.9879555 C17.9686143,14.0895628 18.3604784,14.1959237 18.7446819,14.3013933 L18.7597083,14.3055527 C18.912329,14.3483347 19.1963568,14.4276598 19.308318,14.0494547 C19.3463258,13.9214057 19.3410224,13.8177186 19.2924077,13.7330459 C19.2234632,13.6112359 19.0917615,13.5800407 18.9957106,13.5574612 Z" id="Shape"></path>
                            <path d="M3.68163165,9.11761418 C4.75809435,9.39335975 5.86269793,9.70112739 6.83696481,9.97301844 C6.89590372,9.99014414 6.9568842,9.99922009 7.01825131,10 C7.15480864,10 7.27122301,9.94662989 7.38171299,9.83662816 C8.07308997,9.14667124 8.78224014,8.45078431 9.46828516,7.77772793 L9.75235994,7.49901735 C9.98074539,7.27456639 10.0485797,7.0329184 9.96652684,6.73760379 C9.83322794,6.26023781 9.70407611,5.7727908 9.57907136,5.30165133 C9.45762125,4.84296489 9.33172784,4.36886041 9.20227979,3.90335446 C9.19423086,3.86604497 9.18898299,3.82818481 9.18658015,3.79009122 C9.17502757,3.66645047 9.15932793,3.49744512 9.02454792,3.39900692 C8.93331223,3.33259078 8.81719407,3.31687625 8.6649371,3.35038082 C8.52452892,3.38180988 8.43151591,3.44081351 8.38086233,3.53124619 C8.30769604,3.66111346 8.35479499,3.79987574 8.38886026,3.90098245 C8.40352019,3.93783053 8.41347291,3.97638405 8.41848224,4.01572819 C8.39211868,4.10853288 8.43358945,4.18918104 8.46084167,4.24255115 C8.46794029,4.25550974 8.4742706,4.26887539 8.47979974,4.28257874 C8.66167869,4.95741413 8.84266897,5.63224951 9.03254586,6.34088597 L9.18628393,6.91046364 L9.19694784,6.9356662 C9.190431,6.96146175 9.12378155,7.02046537 9.0840881,7.05604544 C9.05446612,7.0815445 9.02484414,7.10793305 8.9972957,7.13639711 C8.7502484,7.38753313 8.49520317,7.64044815 8.24904452,7.88417165 C7.88706395,8.24293739 7.51264214,8.61385965 7.15303132,8.98893292 C6.99899703,9.14993275 6.87813936,9.17780381 6.63701645,9.10753316 C6.05375969,8.93882432 5.45746926,8.78138249 4.88072934,8.63046368 C4.55488758,8.54507151 4.219863,8.45671432 3.8904666,8.36746764 L3.84751473,8.35531112 C3.75390927,8.32773656 3.6374949,8.29334249 3.5237465,8.35738662 C3.4443596,8.40186171 3.3904476,8.48221338 3.35845586,8.60229612 C3.33268474,8.69865882 3.31165313,8.82348558 3.37534039,8.9325978 C3.43902764,9.04171003 3.56314373,9.08648162 3.68163165,9.11761418 Z" id="Shape"></path>
                        </g>
                    </g>
                </g>
            </g>
        </g>
    </g>
</svg>