<svg xmlns="http://www.w3.org/2000/svg" viewBox="0 0 270 270"><defs><style>.a{fill:#ffb700;}.b{fill:red;}</style></defs><title>cryptogram_logo</title><circle class="a" cx="135" cy="135" r="135"/><path class="b" d="M661.26,414.2c0,7.33.36,14.17,1.1,22.84H650.63c.73-8.55,1.1-15.51,1.1-22.84V389a206.94,206.94,0,0,1-17.35,16.49A36.5,36.5,0,0,0,627.79,395c13.92-7.94,23.21-17.47,36.15-37.74H648.8c-8.43,0-14.42.61-18.08,1.46v-11.6c4.89.73,11.24,1.1,23.08,1.1,12.83,0,21.62-.37,26.75-1-1.46,3.42-3.29,6.72-7.2,13.07a186,186,0,0,1-12.09,17.35ZM652.71,344a48.27,48.27,0,0,0-5.26-14.78L658,325.64c2.44,5.62,3.66,8.67,6.11,14.9Zm22.47,55.46a68.29,68.29,0,0,0-11.11-15.51l8.18-6c4.76,5.5,8.18,9.89,12.21,15.15Zm39.58,33.34c-18.69,0-19.67-.73-19.67-13.68V346.77a136.63,136.63,0,0,0-1.34-20.64,52.72,52.72,0,0,0,13.07,1.71c2.56-.12,2.93.86.61,2.44a4.87,4.87,0,0,0-2.32,4V417.5c0,3.91.85,5.37,9.52,5.37,9.9,0,11.36-.85,13.2-15.15a18.24,18.24,0,0,0,11,7.21C735,430.93,732.35,432.76,714.76,432.76Z" transform="translate(-548 -248.5)"/></svg>